<?xml version="1.0" encoding="UTF-8" standalone="no"?>
<!-- Created with Inkscape (http://www.inkscape.org/) -->

<svg
   width="124.95806mm"
   height="181.83635mm"
   viewBox="0 0 124.95806 181.83635"
   version="1.1"
   id="svg1"
   xml:space="preserve"
   inkscape:version="1.3.2 (091e20e, 2023-11-25, custom)"
   sodipodi:docname="logoeasytrash.svg"
   xmlns:inkscape="http://www.inkscape.org/namespaces/inkscape"
   xmlns:sodipodi="http://sodipodi.sourceforge.net/DTD/sodipodi-0.dtd"
   xmlns="http://www.w3.org/2000/svg"
   xmlns:svg="http://www.w3.org/2000/svg"><sodipodi:namedview
     id="namedview1"
     pagecolor="#ffffff"
     bordercolor="#000000"
     borderopacity="0.25"
     inkscape:showpageshadow="2"
     inkscape:pageopacity="0.0"
     inkscape:pagecheckerboard="0"
     inkscape:deskcolor="#d1d1d1"
     inkscape:document-units="mm"
     inkscape:zoom="0.16031672"
     inkscape:cx="1390.9965"
     inkscape:cy="1075.9951"
     inkscape:window-width="1366"
     inkscape:window-height="705"
     inkscape:window-x="-8"
     inkscape:window-y="-8"
     inkscape:window-maximized="1"
     inkscape:current-layer="layer1" /><defs
     id="defs1"><inkscape:path-effect
       effect="fillet_chamfer"
       id="path-effect3"
       is_visible="true"
       lpeversion="1"
       nodesatellites_param="F,0,0,1,0,4.6014759,0,1 @ F,0,0,1,0,2.7343585,0,1 @ F,0,0,1,0,2.8209172,0,1 @ F,0,0,1,0,0,0,1 @ F,0,0,1,0,0,0,1 @ F,0,0,1,0,0,0,1 @ F,0,0,1,0,0,0,1"
       radius="0"
       unit="px"
       method="auto"
       mode="F"
       chamfer_steps="1"
       flexible="false"
       use_knot_distance="true"
       apply_no_radius="true"
       apply_with_radius="true"
       only_selected="false"
       hide_knots="false" /></defs><g
     inkscape:label="Camada 1"
     inkscape:groupmode="layer"
     id="layer1"
     transform="translate(-59.875075,-42.933073)"><path
       style="fill:#24b43f"
       d="m 113.69447,224.64568 c -15.915661,-0.74042 -28.983509,-3.98537 -34.528122,-8.57388 -2.553983,-2.11358 -3.038234,-3.48115 -3.041176,-8.58856 -0.0013,-2.33004 0.08306,-2.82977 0.680331,-4.02835 1.932053,-3.87712 9.662687,-7.55837 20.694782,-9.85465 2.08002,-0.43295 3.991805,-0.78717 4.248405,-0.78717 0.26051,0 1.58484,1.26149 2.99868,2.85637 l 2.53213,2.85637 -3.07637,0.44688 c -5.782651,0.84 -11.442304,2.66003 -14.232941,4.57704 -7.4004,5.08364 5.929478,10.95297 27.874581,12.27354 9.22638,0.55521 22.21375,-0.94096 30.24553,-3.48436 4.95794,-1.57001 8.46667,-3.94426 8.46667,-5.72915 0,-3.0499 -6.31469,-5.79746 -18.17922,-7.90988 l -1.11359,-0.19827 2.41259,-2.8604 2.41259,-2.86039 1.08225,0.16935 c 2.01595,0.31544 7.13059,1.49746 9.78442,2.26123 8.19716,2.35913 13.15435,5.2471 14.73072,8.58187 0.41643,0.88096 0.50028,1.67916 0.50028,4.7625 0,4.47593 -0.25515,5.20521 -2.53077,7.23369 -5.19513,4.63091 -17.65683,7.84776 -33.9701,8.76902 -4.22476,0.23859 -13.74566,0.28473 -17.99167,0.0872 z m 6.7028,-20.27303 c -1.04289,-1.20856 -4.06459,-4.86942 -6.71489,-8.13525 -2.6503,-3.26583 -5.92256,-7.24756 -7.27169,-8.84829 C 97.763717,177.12958 92.84871,171.33596 90.168131,168.24299 81.446257,158.1793 75.512614,150.16659 71.429881,142.93911 65.245804,131.99171 61.69996,122.34055 60.348154,112.77661 59.780549,108.76084 59.708361,100.00695 60.21506,96.637026 61.962331,85.016411 66.751709,74.01013 73.800788,65.416194 77.481085,60.929332 84.234057,55.014922 88.95593,52.142967 c 7.093684,-4.314546 16.77414,-7.637673 25.79687,-8.855605 3.76612,-0.508369 12.70076,-0.439782 16.40417,0.125926 6.92546,1.057887 12.74767,2.854018 18.91771,5.836037 6.65099,3.214474 11.36626,6.598292 16.80104,12.056927 10.95467,11.002776 17.19316,25.162878 17.89692,40.622448 0.43606,9.57885 -1.48418,19.31583 -5.79183,29.36874 -2.87191,6.70226 -4.85973,10.38784 -9.06169,16.80104 -4.68722,7.15384 -9.34099,13.02769 -19.70481,24.87084 -4.13934,4.73018 -11.34298,13.37948 -16.41686,19.71145 -6.86745,8.57027 -11.2463,13.89163 -11.42979,13.88995 -0.0408,-3.8e-4 -0.9275,-0.9895 -1.97039,-2.19807 z m 9.19717,-52.69801 c 8.03582,-1.22313 16.71469,-5.10049 23.29249,-10.40614 2.77473,-2.23809 6.88385,-6.60412 9.03075,-9.59536 2.53423,-3.53092 5.77944,-10.16997 6.9088,-14.13403 1.33211,-4.67575 1.79996,-8.04577 1.79981,-12.96458 -2.5e-4,-8.136524 -1.95866,-16.228534 -5.53154,-22.855901 -3.38834,-6.285063 -7.77597,-11.533566 -12.85797,-15.380735 -6.94351,-5.256373 -14.07034,-8.229574 -22.53502,-9.401254 -4.75999,-0.658877 -12.86246,-0.415589 -17.25949,0.51824 -18.633341,3.957304 -32.414283,16.706178 -37.091578,34.313756 -1.155904,4.35137 -1.608302,7.86197 -1.608302,12.480364 0,6.10859 0.837923,11.33127 2.556755,15.93594 0.964211,2.58308 3.520022,7.56163 5.083217,9.90177 2.028611,3.03688 5.888459,7.46561 8.647735,9.92229 7.269791,6.47253 17.355953,10.88737 27.531653,12.05095 2.65114,0.30315 8.80403,0.10613 12.03269,-0.38531 z m -11.79893,-11.25605 c -2.71135,-0.41562 -6.21761,-1.36059 -6.21974,-1.67628 -0.004,-0.5286 4.97873,-5.14541 9.10544,-8.4375 5.57163,-4.44477 7.51149,-6.21876 9.85806,-9.01514 5.81645,-6.9314 9.6624,-15.61659 11.72052,-26.468064 0.57849,-3.05014 1.04695,-10.752288 0.65397,-10.752288 -0.12764,0 -0.89037,0.644205 -1.69495,1.431567 -2.84181,2.780982 -9.02164,6.601351 -14.41556,8.911701 -3.94701,1.6906 -9.53204,4.52312 -11.6829,5.925124 -6.72373,4.38275 -11.03078,10.95338 -12.43506,18.97035 -0.35402,2.02107 -0.39326,3.27351 -0.21814,6.9623 0.25875,5.45034 0.26893,8.53305 0.029,8.773 -0.37748,0.37748 -5.081881,-3.74635 -7.506321,-6.57996 -5.740056,-6.70879 -9.076582,-15.53726 -9.076582,-24.01671 0,-2.68323 0.629781,-7.483684 1.334639,-10.173164 1.247439,-4.75978 4.683706,-10.951619 8.21125,-14.795914 4.821614,-5.254564 11.861124,-9.159598 19.652664,-10.901933 1.08108,-0.241752 3.75845,-0.482715 6.25561,-0.563008 4.96096,-0.159511 8.55485,0.326072 12.86072,1.73766 12.33402,4.043439 21.76578,14.973316 24.10137,27.929575 0.60803,3.372924 0.60545,10.128354 -0.005,13.183744 -1.0399,5.20463 -3.32573,10.45609 -6.42488,14.76043 -2.03277,2.82327 -6.31843,6.9326 -9.20843,8.82956 -4.18349,2.74599 -8.44691,4.52594 -13.12168,5.4782 -2.89605,0.58994 -9.35803,0.85708 -11.77396,0.48675 z m -7.93031,-9.03084 c -0.51766,-1.44617 -1.14891,-6.46144 -1.05413,-8.37511 0.46602,-9.40928 5.63307,-16.27408 15.88231,-21.10081 1.73596,-0.81752 4.67262,-2.211534 6.52591,-3.097804 1.85329,-0.88626 3.45227,-1.52873 3.55329,-1.42771 0.59176,0.59176 -2.1412,8.766874 -4.28464,12.816674 -3.22455,6.09245 -6.14636,9.39955 -13.33297,15.09115 -2.12156,1.68021 -4.60108,3.81848 -5.51005,4.75171 -1.06901,1.09753 -1.69755,1.57145 -1.77972,1.3419 z"
       id="path2" /><path
       style="fill:#085c2d"
       d="m 116.49502,224.69555 c -8.884,-0.41103 -14.86799,-1.05848 -20.665968,-2.236 -8.16641,-1.65852 -14.078811,-4.08694 -17.267126,-7.0922 -1.603646,-1.51158 -2.006398,-2.65015 -2.013169,-5.69121 l -0.0058,-2.60959 0.859896,1.27926 c 3.903977,5.80789 16.656944,9.8381 36.395167,11.50165 8.67521,0.73115 24.0022,-0.21082 32.85743,-2.01936 10.38273,-2.12052 17.44548,-5.36042 20.50729,-9.40732 l 1.05833,-1.39883 0.0848,1.57355 c 0.20847,3.86753 -0.59373,5.74569 -3.31712,7.76624 -5.24874,3.89417 -15.87247,6.7815 -28.78228,7.82247 -4.81632,0.38837 -16.06338,0.68013 -19.71145,0.51134 z m 5.73264,-18.53933 c -0.097,-0.097 -0.17639,-10.74363 -0.17639,-23.65915 v -23.48276 l 1.65365,-0.14392 c 0.9095,-0.0792 2.60614,-0.21308 3.77031,-0.29761 4.28432,-0.31106 11.38629,-2.07499 16.00729,-3.97575 7.17259,-2.9503 14.9157,-8.20172 19.57758,-13.2776 10.32142,-11.23802 15.62225,-26.0144 14.54681,-40.55016 -0.51586,-6.972447 -2.40394,-14.147911 -5.31908,-20.214661 l 5.04048,-5.323047 c 3.65992,6.732003 5.96036,13.676753 7.03462,21.236641 0.64686,4.552147 0.44683,14.085177 -0.39547,18.847737 -1.83761,10.39017 -6.84921,22.02555 -14.41981,33.4783 -4.45518,6.73978 -7.64279,10.75245 -18.80447,23.6717 -5.35003,6.19247 -12.14007,14.3217 -16.66398,19.95061 -1.1583,1.44122 -2.70132,3.36092 -3.42892,4.266 -4.58222,5.69991 -7.8765,9.65006 -8.04779,9.65006 -0.10912,0 -0.27776,-0.0794 -0.37478,-0.17639 z"
       id="path1"
       sodipodi:nodetypes="sssscsssscssssssccssssccsssssssss" /><path
       style="fill:#085c2d"
       d="m 131.55412,43.465402 c 0.91351,0.144551 1.82319,0.318375 2.75327,0.512369 1.47821,0.308324 3.86675,0.850766 5.32142,1.255746 9.39398,2.615275 17.18219,7.391735 22.03564,11.318775 1.21092,0.979784 3.04345,2.720312 4.14465,3.822362 4.42636,4.429742 9.22554,9.753749 11.75685,15.382478 -2.19677,1.187591 -3.73679,7.840398 -5.16978,5.033275 -3.31285,-6.489623 -16.45047,-29.882393 -50.65258,-30.153138 l 0.29375,-7.704196 0.33859,0.0068 c 2.54081,0.05085 6.66993,0.128656 9.17819,0.525552 z"
       id="path1-1"
       sodipodi:nodetypes="csccsccc" /></g></svg>
