<?xml version="1.0" encoding="UTF-8" standalone="no"?>
<svg
   height="23"
   viewBox="0 0 608.90942 513.84845"
   version="1.1"
   id="svg1"
   sodipodi:docname="mapa-busca.svg"
   inkscape:version="1.3.2 (091e20e, 2023-11-25, custom)"
   xmlns:inkscape="http://www.inkscape.org/namespaces/inkscape"
   xmlns:sodipodi="http://sodipodi.sourceforge.net/DTD/sodipodi-0.dtd"
   xmlns="http://www.w3.org/2000/svg"
   xmlns:svg="http://www.w3.org/2000/svg">
  <defs
     id="defs1">
    <filter
       inkscape:collect="always"
       style="color-interpolation-filters:sRGB"
       id="filter3"
       x="-0.017279999"
       y="-0.017279999"
       width="1.03456"
       height="1.03456">
      <feGaussianBlur
         inkscape:collect="always"
         stdDeviation="1.6797456"
         id="feGaussianBlur3" />
    </filter>
  </defs>
  <sodipodi:namedview
     id="namedview1"
     pagecolor="#ffffff"
     bordercolor="#000000"
     borderopacity="0.25"
     inkscape:showpageshadow="2"
     inkscape:pageopacity="0.0"
     inkscape:pagecheckerboard="0"
     inkscape:deskcolor="#d1d1d1"
     showgrid="false"
     inkscape:zoom="0.40169347"
     inkscape:cx="495.40262"
     inkscape:cy="431.92138"
     inkscape:window-width="1366"
     inkscape:window-height="705"
     inkscape:window-x="-8"
     inkscape:window-y="-8"
     inkscape:window-maximized="1"
     inkscape:current-layer="svg1" />
  <!--!Font Awesome Free 6.5.2 by @fontawesome - https://fontawesome.com License - https://fontawesome.com/license/free Copyright 2024 Fonticons, Inc.-->
  <path
     fill="#000000"
     d="m 565.6,4.2627077 c 6.5,4.5 10.4,11.9000003 10.4,19.8000003 V 360.06271 c 0,10 -6.2,18.9 -15.5,22.4 l -168,64 c -5.2,2 -10.9,2.1 -16.1,0.3 l -183.9,-61.2 -160,61 c -7.4,2.8 -15.7,1.8 -22.2,-2.7 -6.5,-4.5 -10.3,-11.9 -10.3,-19.8 V 88.062708 c 0,-10 6.1,-18.9 15.5,-22.4 l 168,-64.0000003 c 5.2,-1.99999992 10.9,-2.09999992 16.1,-0.3 L 383.5,62.562708 543.5,1.5627077 c 7.4,-2.8 15.7,-1.79999992 22.2,2.7 z M 48,104.56271 v 284.7 l 120,-45.7 V 58.862708 Z m 312,286.2 v -285.4 L 216,57.362708 V 342.76271 Z m 48,-1.5 120,-45.7 V 58.862708 L 408,104.56271 Z"
     id="path1" />
  <circle
     style="mix-blend-mode:normal;fill:#ffffff;fill-opacity:1;stroke:#ffffff;stroke-width:0;stroke-opacity:1;filter:url(#filter3)"
     id="path3"
     cx="455.21564"
     cy="361.32742"
     r="116.649" />
  <path
     fill="#000000"
     d="m 560.92193,361.81092 c 0,22.95 -7.45,44.15 -20,61.35 l 63.3,63.35 c 6.25,6.25 6.25,16.4 0,22.65 -6.25,6.25 -16.4,6.25 -22.65,0 l -63.3,-63.35 c -17.2,12.6 -38.4,20 -61.35,20 -57.45,0 -104,-46.55 -104,-104 0,-57.45 46.55,-104 104,-104 57.45,0 104,46.55 104,104 z m -104,72 a 72,72 0 1 0 0,-144 72,72 0 1 0 0,144 z"
     id="path1-6"
     style="stroke-width:0.5" />
</svg>
