<svg width="1440" height="1036" viewBox="0 0 1440 1036" fill="none" preserveAspectRatio="none" xmlns="http://www.w3.org/2000/svg">
<g clip-path="url(#clip0_3445_893)">
<path d="M-39.452 259.576C64.2147 249.576 28.0107 263.109 310.048 312.576C501.048 346.076 544.548 106.576 958.048 167.076C1371.55 227.576 1603.55 -99.9246 1627.05 33.0754C1645.85 139.475 1686.55 407.742 1704.55 528.576C1045.55 546.909 -270.152 580.375 -260.952 567.576C-251.752 554.776 -109.452 356.909 -39.452 259.576Z" fill="#3DAD71" />
<path d="M-179.291 563.648C-165.091 493.546 -157.878 268.275 38.7089 277.23C187.939 284.029 356.5 450.5 501.709 379.821C646.918 309.143 871.225 280.931 1119 247.649C1302.5 223 1487.08 105.844 1615.29 159.672C1743.5 213.5 3362.08 672.988 -179.291 563.648Z" fill="#362007"/>
</g>
<defs>
<clipPath id="clip0_3445_893">
<rect width="1440" height="1036" fill="white"/>
</clipPath>
</defs>
</svg>
